<svg aria-hidden="true" style="width:0;height:0;position:absolute;overflow:hidden" xmlns="http://www.w3.org/2000/svg"><defs><symbol id="icon-logo-dark" viewBox="0 0 126 32"><path fill="#f6f6f6" style="fill:var(--color1,#f6f6f6)" d="m0 2.286 14.008 13.861 13.42 13.567V2.285H-.001z"/><path fill="#f6f6f6" style="fill:var(--color1,#f6f6f6)" d="m3.82 5.91 10.237 10.139 9.649 9.845H3.82V5.91z"/><path fill="#4f2ee8" style="fill:var(--color2,#4f2ee8)" d="M23.771 25.959 13.534 15.82 3.885 5.975h19.886v19.984z"/><path fill="#4f2ee8" style="fill:var(--color2,#4f2ee8)" d="m7.935 10.024 11.657 11.657H7.935V10.024z"/><path fill="#f6f6f6" style="fill:var(--color1,#f6f6f6)" d="m7.935 10.024 11.657 11.657V10.024H7.935z"/><path fill="#f3f3f3" style="fill:var(--color3,#f3f3f3)" d="M47.659 12.266c0-2.366-1.749-3.703-4.773-3.703h-6.315v14.709h6.665c3.045 0 4.999-1.461 4.999-4.299 0-2.201-1.317-3.333-2.859-3.6v-.041c1.214-.411 2.283-1.255 2.283-3.065zm-8.64 2.387v-4.011h3.929c1.461 0 2.263.72 2.263 2.016s-.658 1.995-2.407 1.995h-3.785zm0 1.83h4.299c1.543 0 2.469.843 2.469 2.345 0 1.378-.638 2.366-2.736 2.366h-4.032v-4.711zM54.516 23.581c-3.291 0-5.287-2.283-5.287-5.554s1.995-5.554 5.287-5.554c3.291 0 5.287 2.283 5.287 5.554s-1.995 5.554-5.287 5.554zm0-1.77c2.057 0 3.127-1.625 3.127-3.785 0-2.181-1.07-3.785-3.127-3.785s-3.127 1.605-3.127 3.785c0 2.16 1.07 3.785 3.127 3.785zM66.027 23.581c-3.291 0-5.287-2.283-5.287-5.554s1.995-5.554 5.287-5.554c3.291 0 5.287 2.283 5.287 5.554s-1.995 5.554-5.287 5.554zm0-1.77c2.057 0 3.127-1.625 3.127-3.785 0-2.181-1.07-3.785-3.127-3.785S62.9 15.846 62.9 18.026c0 2.16 1.07 3.785 3.127 3.785zM72.807 8.563v14.709h2.16v-3.806l1.461-1.378 3.312 5.184h2.592l-4.423-6.603L81.9 12.76h-2.654l-4.279 4.217V8.563h-2.16zM87.539 16.915c-1.522-.35-2.695-.432-2.695-1.502 0-.741.699-1.234 1.995-1.234 1.687 0 2.098.843 2.242 1.666h2.098c-.144-1.831-1.502-3.374-4.361-3.374-2.633 0-4.155 1.378-4.155 3.106 0 2.386 2.263 2.715 3.929 3.106 1.543.37 2.798.473 2.798 1.79 0 .658-.638 1.399-2.139 1.399-2.222 0-2.715-.967-2.818-2.098h-2.098c.103 2.222 1.563 3.806 4.958 3.806 2.551 0 4.279-1.255 4.279-3.271 0-2.51-2.098-2.942-4.032-3.394zM98.633 12.472c-1.769 0-2.859.823-3.415 1.646h-.041V8.564h-2.16v14.709h2.16v-6.398c0-1.563 1.131-2.571 2.715-2.571 1.502 0 2.098.905 2.098 2.325v6.645h2.181v-7.262c0-2.407-1.543-3.538-3.538-3.538zM108.796 21.811c-1.913 0-3.045-1.461-3.045-3.23h8.064c0-3.744-1.666-6.11-5.061-6.11-3.168 0-5.163 2.139-5.163 5.554 0 3.291 1.995 5.554 5.266 5.554 2.695 0 4.258-1.522 4.793-3.518h-2.16c-.185.638-.905 1.749-2.695 1.749zm-.042-7.632c1.749 0 2.901 1.173 2.901 2.798h-5.904c0-1.625 1.255-2.798 3.003-2.798zM115.337 8.563v14.709h2.181V8.563h-2.181zM124.573 10.333V8.564a7.6 7.6 0 0 0-1.44-.144c-1.728 0-2.674.782-2.674 3.003v1.337h-1.502v1.769h1.502v8.743h2.181v-8.743h1.934V12.76h-1.934v-1.152c0-1.193.535-1.337 1.934-1.275z"/></symbol><symbol id="icon-logo-light" viewBox="0 0 126 32"><path fill="#f6f6f6" style="fill:var(--color1,#f6f6f6)" d="m0 2.286 14.008 13.861 13.42 13.567V2.285H-.001z"/><path fill="#f6f6f6" style="fill:var(--color1,#f6f6f6)" d="m3.82 5.91 10.237 10.139 9.649 9.845H3.82V5.91z"/><path fill="#4f2ee8" style="fill:var(--color2,#4f2ee8)" d="M23.771 25.959 13.534 15.82 3.885 5.975h19.886v19.984z"/><path fill="#4f2ee8" style="fill:var(--color2,#4f2ee8)" d="m7.935 10.024 11.657 11.657H7.935V10.024z"/><path fill="#f6f6f6" style="fill:var(--color1,#f6f6f6)" d="m7.935 10.024 11.657 11.657V10.024H7.935z"/><path style="fill:var(--color4,#000)" d="M47.659 12.266c0-2.366-1.749-3.703-4.773-3.703h-6.315v14.709h6.665c3.045 0 4.999-1.461 4.999-4.299 0-2.201-1.317-3.333-2.859-3.6v-.041c1.214-.411 2.283-1.255 2.283-3.065zm-8.64 2.387v-4.011h3.929c1.461 0 2.263.72 2.263 2.016s-.658 1.995-2.407 1.995h-3.785zm0 1.83h4.299c1.543 0 2.469.843 2.469 2.345 0 1.378-.638 2.366-2.736 2.366h-4.032v-4.711zM54.516 23.581c-3.291 0-5.287-2.283-5.287-5.554s1.995-5.554 5.287-5.554c3.291 0 5.287 2.283 5.287 5.554s-1.995 5.554-5.287 5.554zm0-1.77c2.057 0 3.127-1.625 3.127-3.785 0-2.181-1.07-3.785-3.127-3.785s-3.127 1.605-3.127 3.785c0 2.16 1.07 3.785 3.127 3.785zM66.027 23.581c-3.291 0-5.287-2.283-5.287-5.554s1.995-5.554 5.287-5.554c3.291 0 5.287 2.283 5.287 5.554s-1.995 5.554-5.287 5.554zm0-1.77c2.057 0 3.127-1.625 3.127-3.785 0-2.181-1.07-3.785-3.127-3.785S62.9 15.846 62.9 18.026c0 2.16 1.07 3.785 3.127 3.785zM72.807 8.563v14.709h2.16v-3.806l1.461-1.378 3.312 5.184h2.592l-4.423-6.603L81.9 12.76h-2.654l-4.279 4.217V8.563h-2.16zM87.539 16.915c-1.522-.35-2.695-.432-2.695-1.502 0-.741.699-1.234 1.995-1.234 1.687 0 2.098.843 2.242 1.666h2.098c-.144-1.831-1.502-3.374-4.361-3.374-2.633 0-4.155 1.378-4.155 3.106 0 2.386 2.263 2.715 3.929 3.106 1.543.37 2.798.473 2.798 1.79 0 .658-.638 1.399-2.139 1.399-2.222 0-2.715-.967-2.818-2.098h-2.098c.103 2.222 1.563 3.806 4.958 3.806 2.551 0 4.279-1.255 4.279-3.271 0-2.51-2.098-2.942-4.032-3.394zM98.633 12.472c-1.769 0-2.859.823-3.415 1.646h-.041V8.564h-2.16v14.709h2.16v-6.398c0-1.563 1.131-2.571 2.715-2.571 1.502 0 2.098.905 2.098 2.325v6.645h2.181v-7.262c0-2.407-1.543-3.538-3.538-3.538zM108.796 21.811c-1.913 0-3.045-1.461-3.045-3.23h8.064c0-3.744-1.666-6.11-5.061-6.11-3.168 0-5.163 2.139-5.163 5.554 0 3.291 1.995 5.554 5.266 5.554 2.695 0 4.258-1.522 4.793-3.518h-2.16c-.185.638-.905 1.749-2.695 1.749zm-.042-7.632c1.749 0 2.901 1.173 2.901 2.798h-5.904c0-1.625 1.255-2.798 3.003-2.798zM115.337 8.563v14.709h2.181V8.563h-2.181zM124.573 10.333V8.564a7.6 7.6 0 0 0-1.44-.144c-1.728 0-2.674.782-2.674 3.003v1.337h-1.502v1.769h1.502v8.743h2.181v-8.743h1.934V12.76h-1.934v-1.152c0-1.193.535-1.337 1.934-1.275z"/></symbol><symbol id="icon-align-left-converted" viewBox="0 0 32 32"><path d="M3.498 6.936c-.218.065-.503.358-.566.582a2.345 2.345 0 0 0 .003.98l-.003-.016c.066.235.349.515.591.585.25.072 24.699.072 24.959 0 .235-.066.515-.349.585-.591a2.282 2.282 0 0 0-.002-.969l.003.015c-.07-.242-.35-.525-.585-.591-.239-.066-24.762-.064-24.984.003zm0 5.333c-.218.065-.503.359-.566.583a2.345 2.345 0 0 0 .003.98l-.003-.016c.066.235.349.515.591.585.25.072 19.367.071 19.625-.001.235-.065.517-.349.585-.59a2.275 2.275 0 0 0-.002-.969l.003.015c-.069-.241-.35-.525-.585-.59-.238-.066-19.429-.064-19.65.002zm0 5.333c-.218.065-.503.359-.566.582a2.345 2.345 0 0 0 .003.98l-.003-.016c.066.235.349.517.591.585.25.072 24.699.072 24.959 0 .235-.065.515-.349.585-.59a2.29 2.29 0 0 0 0-.954c-.07-.241-.35-.525-.585-.59-.239-.066-24.762-.064-24.984.002zm0 5.334c-.218.065-.503.358-.566.582a2.345 2.345 0 0 0 .003.98l-.003-.016c.066.235.349.515.591.585.25.072 19.367.071 19.625 0 .235-.066.517-.349.585-.591a2.282 2.282 0 0 0-.002-.969l.003.015c-.069-.242-.35-.525-.585-.591-.238-.066-19.429-.063-19.65.003z"/></symbol><symbol id="icon-arr-right" viewBox="0 0 32 32"><path stroke-linejoin="round" stroke-linecap="round" stroke-width="3.2" d="M5.333 16h21.333m.001 0-8-8m8 8-8 8"/></symbol><symbol id="icon-arrow-down" viewBox="0 0 28 32"><path d="M5.952 12.028c.015.042 6.209 7.062 7.137 8.087.476.527.666.641 1.065.641s.588-.114 1.065-.641c.928-1.025 7.122-8.046 7.137-8.087.01-.028-3.055-.044-8.202-.044s-8.212.016-8.202.044z"/></symbol><symbol id="icon-arrow-up" viewBox="0 0 32 32"><path d="M16.187 8.061c-.185.049-.977.821-6.06 5.904-4.615 4.617-5.871 5.901-5.964 6.103a1.701 1.701 0 0 0-.152.709c0 .165.023.326.067.477l-.003-.012c.065.225.161.381.379.616.379.409.712.563 1.227.563.712 0 .375.299 5.921-5.248l5.011-5.012 5.015 5.008c3.603 3.599 5.081 5.041 5.253 5.128.284.143.836.196 1.149.111.755-.204 1.32-1.039 1.228-1.813-.073-.625.163-.369-6.02-6.557-3.551-3.555-5.852-5.819-5.983-5.887-.248-.129-.756-.171-1.068-.088z"/></symbol><symbol id="icon-bookicon88x80" viewBox="0 0 35 32"><path d="M24.743 4.147 20.768 8.23v15.546l.234-.198c.129-.109 1.936-1.769 4.016-3.689l3.782-3.491.003-8.169c.001-4.493-.017-8.168-.042-8.167s-1.832 1.84-4.018 4.086zM7.509 5.79c-.606.045-2.014.27-2.672.428a17.392 17.392 0 0 0-3.004 1.024l.111-.044C.653 7.769.41 7.944.164 8.478l-.135.294v20.592l.125.264c.264.556.818.934 1.462.938h.001c.297 0 .436-.039.851-.24 2.4-1.167 4.105-1.598 6.333-1.6 1.578-.002 2.912.23 4.401.765 1.226.44 2.999 1.414 4.058 2.229l.341.262.341-.262c1.059-.815 2.832-1.789 4.058-2.229a12.366 12.366 0 0 1 4.401-.765c1.241.001 2.008.098 3.202.404.968.248 1.514.454 2.68 1.01.841.402.957.442 1.29.443a1.534 1.534 0 0 0 1.434-.884l.164-.335V8.772l-.135-.294c-.197-.428-.383-.593-1.038-.923-.632-.319-1.808-.808-1.942-.808-.07 0-.082 1.438-.082 9.826 0 5.405-.02 9.827-.044 9.827s-.268-.076-.542-.169c-1.203-.409-2.623-.678-4.09-.774-3.082-.202-6.418.618-9.198 2.261-.247.146-.46.266-.474.266s-.031-4.468-.039-9.929l-.015-9.93-1.056-.528a17.022 17.022 0 0 0-6.278-1.789c-.597-.054-2.112-.064-2.728-.018zM11 9.206c.923.159 1.666.352 2.493.65.371.134.721.258.778.275.097.03.102.47.102 8.15 0 4.465-.011 8.118-.024 8.118s-.27-.081-.572-.18c-3.186-1.047-6.863-1.043-9.964.011-.274.093-.518.169-.542.169s-.044-3.653-.044-8.118v-8.118l.57-.218a15.314 15.314 0 0 1 3.566-.852c.801-.089 2.836-.026 3.637.111z"/></symbol><symbol id="icon-cart" viewBox="0 0 32 32"><path d="M25.334 9.333h-4V8a5.332 5.332 0 1 0-10.666 0v1.333h-4a1.335 1.335 0 0 0-1.334 1.334v14.667a4.003 4.003 0 0 0 4 4h13.333a4.003 4.003 0 0 0 4-4V10.667a1.335 1.335 0 0 0-1.334-1.334zM13.334 8a2.668 2.668 0 0 1 5.334 0v1.333h-5.333V8zM24 25.333a1.335 1.335 0 0 1-1.334 1.334H9.333a1.335 1.335 0 0 1-1.334-1.334V12h2.667v1.333a1.335 1.335 0 0 0 2.277.943c.25-.251.39-.589.39-.943V12h5.333v1.333a1.335 1.335 0 0 0 2.277.943c.25-.251.391-.589.391-.943V12h2.667v13.333z"/></symbol><symbol id="icon-darkswitcher" viewBox="0 0 52 32"><path d="M10.821 2.402c-2.891.361-5.175 1.401-7.093 3.227a12.003 12.003 0 0 0-3.512 6.352l-.013.077c-.209 1.047-.209 3.258 0 4.305.494 2.487 1.649 4.616 3.435 6.338 1.73 1.669 3.678 2.687 6.074 3.174.711.146 1.633.155 14.016.155 12.453 0 13.299-.009 13.993-.156 1.152-.245 1.887-.482 2.775-.897 2.437-1.138 4.455-3.093 5.638-5.465.852-1.708 1.234-3.349 1.234-5.312.002-5.619-3.823-10.325-9.432-11.605l-.866-.197-12.994-.014c-7.145-.007-13.111.001-13.254.019zm27.354 1.497c1.122.286 2.287.799 3.285 1.447.909.591 2.381 2.08 3.004 3.039 3.493 5.376 1.496 12.587-4.263 15.39-1.71.833-3.294 1.153-5.211 1.052-2.81-.146-5.192-1.244-7.159-3.302-1.94-2.031-2.892-4.44-2.892-7.315 0-1.843.315-3.211 1.105-4.78 1.538-3.063 4.436-5.172 7.896-5.747 1.158-.192 3.001-.098 4.235.216z"/></symbol><symbol id="icon-fi-rr-angle-small-left" viewBox="0 0 32 32"><path d="M7.559 11.433a1.344 1.344 0 0 0-.811 1.702l-.003-.009c.087.272.269.464 3.247 3.452 1.735 1.74 3.297 3.279 3.473 3.42.42.337.921.605 1.414.759.579.179 1.661.179 2.24 0a4.432 4.432 0 0 0 1.414-.759c.176-.141 1.738-1.68 3.473-3.42 2.977-2.988 3.159-3.18 3.247-3.452a1.324 1.324 0 0 0-1.402-1.75l.006-.001a1.61 1.61 0 0 0-.463.122l.01-.004c-.099.051-1.644 1.551-3.433 3.337-2.25 2.244-3.315 3.27-3.452 3.327-.255.106-.79.106-1.044 0-.137-.057-1.201-1.082-3.452-3.327-1.789-1.786-3.335-3.287-3.437-3.338-.246-.124-.775-.154-1.03-.06z"/></symbol><symbol id="icon-lightswitcher" viewBox="0 0 50 32"><path d="M12.361 2.528C8.612 3.161 5.38 5.502 3.7 8.801c-.897 1.761-1.308 3.499-1.303 5.51.004 1.856.344 3.361 1.124 4.99 1.702 3.552 4.766 5.871 8.779 6.644.715.137 1.647.147 13.709.147 12.229 0 12.991-.008 13.813-.154 2.394-.422 4.532-1.486 6.229-3.102 1.779-1.694 2.937-3.768 3.492-6.253.161-.725.191-1.097.191-2.355 0-1.655-.141-2.529-.635-3.931-1.305-3.587-4.178-6.324-7.769-7.415l-.085-.022c-1.608-.468-1.109-.454-15.237-.446-10.095.007-13.165.032-13.647.114zm4.24 1.321c3.998.914 7.076 4.002 8.02 8.049.186.8.215 1.103.213 2.33-.001 1.505-.097 2.155-.495 3.36-1.186 3.584-4.231 6.29-7.995 7.102-.99.213-3.241.213-4.231 0-2.132-.46-3.864-1.403-5.403-2.943-1.217-1.217-1.992-2.436-2.542-3.993-.441-1.25-.553-1.966-.553-3.526s.113-2.276.553-3.526c1.336-3.788 4.748-6.548 8.716-7.049.979-.123 2.715-.032 3.718.197z"/></symbol><symbol id="icon-lock-02" viewBox="0 0 32 32"><path d="M14.751 2.963a7.866 7.866 0 0 0-6.226 5.479l-.014.056c-.257.886-.297 1.331-.297 3.257v1.783l-.36.034c-1.35.129-2.006.345-2.875.944-.793.547-1.498 1.496-1.797 2.417-.256.792-.275 1.098-.275 4.4 0 3.301.019 3.607.275 4.4.304.939 1.032 1.904 1.858 2.462.658.445 1.16.647 2 .803.472.088 1.093.095 8.96.095s8.488-.007 8.96-.095c.84-.157 1.342-.359 2-.803.826-.558 1.554-1.522 1.858-2.462.256-.793.275-1.099.275-4.4 0-3.302-.019-3.608-.275-4.4-.304-.941-1.032-1.904-1.858-2.463-.824-.557-1.499-.773-2.814-.898l-.36-.034v-1.783c0-1.926-.04-2.371-.297-3.257-.859-2.891-3.271-5.051-6.245-5.531l-.045-.006c-.611-.098-1.855-.097-2.448.002zm2.369 2.299c1.75.345 3.32 1.665 3.997 3.36.363.909.399 1.194.401 3.165l.002 1.734H10.48l.002-1.734c.002-1.97.038-2.256.401-3.165.871-2.181 3.074-3.599 5.383-3.465.25.015.634.062.854.105zm6.485 10.576c.511.027 1.061.087 1.253.136.855.221 1.616.982 1.835 1.835.247.96.247 6.089 0 7.048-.219.854-.981 1.615-1.835 1.835-.601.155-2.011.185-8.857.185s-8.256-.03-8.857-.185c-.855-.221-1.616-.982-1.835-1.835-.248-.96-.247-6.09 0-7.048.221-.856.979-1.614 1.839-1.838.191-.049.683-.107 1.094-.129 1.091-.057 14.294-.062 15.365-.005z"/></symbol><symbol id="icon-mail-02" viewBox="0 0 32 32"><path d="M6.4 4.248c-.475.049-1.258.195-1.51.282-.931.32-1.833.997-2.374 1.782-.501.726-.687 1.19-.861 2.142-.104.568-.107.799-.106 7.36 0 6.487.016 7.271.161 8.026a4.853 4.853 0 0 0 1.98 3.012l.016.01c.658.445 1.16.646 2 .802.474.089 1.15.095 10.294.095s9.819-.006 10.294-.095c.869-.162 1.357-.362 2.061-.848a4.82 4.82 0 0 0 1.93-2.946l.005-.031c.145-.755.161-1.539.161-8.026.001-6.561-.002-6.792-.106-7.36-.127-.694-.222-1.007-.439-1.44-.378-.759-.918-1.394-1.551-1.831-.682-.47-1.173-.677-2.008-.845-.417-.085-1.216-.093-10.106-.101-5.31-.005-9.737 0-9.84.01zm18.537 2.256c.512.027 1.062.087 1.254.137.845.218 1.614.981 1.83 1.811.065.251.069.334.018.383-.198.19-11.107 7.776-11.387 7.919-.265.135-.401.17-.651.17s-.386-.035-.651-.17c-.28-.143-11.19-7.729-11.387-7.919-.05-.049-.047-.131.018-.383.217-.834.984-1.593 1.834-1.814.191-.05.682-.109 1.093-.13 1.091-.057 16.959-.061 18.031-.005zm-17.84 7.322c1.77 1.24 3.216 2.273 3.211 2.298-.005.024-1.456 1.351-3.225 2.949-3.099 2.799-3.218 2.899-3.25 2.755-.051-.229-.053-10.255-.001-10.255.025 0 1.495 1.014 3.265 2.253zm21.11 2.8c-.003 2.779-.022 5.121-.04 5.202-.032.144-.151.043-3.25-2.755-1.769-1.598-3.221-2.925-3.225-2.949-.008-.048 6.4-4.551 6.477-4.551.025 0 .042 2.273.039 5.053zm-14.969 1.489c1.325.896 1.801 1.082 2.762 1.082.962 0 1.438-.186 2.767-1.085.507-.344.945-.618.971-.609s1.789 1.587 3.914 3.507l3.867 3.491-.2.206c-.306.3-.686.525-1.111.646l-.018.004c-.615.159-2.048.185-10.191.185s-9.576-.026-10.191-.185a2.613 2.613 0 0 1-1.13-.651l-.2-.206 3.88-3.504c2.134-1.928 3.897-3.505 3.919-3.505s.453.28.959.622z"/></symbol><symbol id="icon-switcher-circle" viewBox="0 0 32 32"><path d="M13.68 2.512c-3.55.366-6.614 2.341-8.494 5.473-1.006 1.676-1.585 4.014-1.487 5.988.119 2.377.864 4.43 2.29 6.319.421.559 1.489 1.625 2.063 2.058a11.123 11.123 0 0 0 5.085 2.152l.062.008c.789.119 2.354.119 3.147 0 4.478-.674 8.071-3.924 9.17-8.292a10.97 10.97 0 0 0 .323-2.674c0-.946-.117-1.864-.337-2.741l.016.077c-.871-3.397-3.217-6.117-6.297-7.482l-.071-.028c-1.727-.741-3.662-1.045-5.472-.858zM15.964 4.4c4.026.528 7.248 3.637 7.903 7.627.848 5.161-2.741 9.984-7.936 10.663-1.402.183-2.677.058-4.064-.404-3.202-1.081-5.582-3.787-6.18-7.111l-.008-.056c-.121-.692-.159-1.867-.082-2.533.185-1.605.656-2.89 1.556-4.245.534-.804 1.614-1.883 2.416-2.416 1.961-1.302 4.139-1.822 6.396-1.526z"/></symbol><symbol id="icon-switcher-rectangle" viewBox="0 0 64 32"><path d="M13.982.115C11.59.429 8.896 1.456 6.987 2.784 3.509 5.2 1.238 8.627.296 12.878c-.334 1.509-.334 4.734 0 6.243 1.446 6.525 6.114 11.174 12.632 12.587l1.099.238h35.946l1.099-.238c6.515-1.411 11.192-6.07 12.627-12.579.336-1.522.336-4.738 0-6.259-1.107-5.021-4.144-8.968-8.624-11.206A17.078 17.078 0 0 0 51.248.315L51.13.293 50.08.055 32.373.041c-9.738-.008-18.014.026-18.39.075z"/></symbol><symbol id="icon-ukraine-trizub" viewBox="0 0 20 32"><path d="M9.795.26A4.762 4.762 0 0 0 8.82 2.4l-.004.029c-.092.525-.057 1.623.134 4.254.154 2.102.186 2.696.206 3.817.013.736.006 1.293-.02 1.633-.15 1.971-.678 3.939-1.622 6.052-.232.521-.901 1.85-.957 1.903-.03.028-.186.005-.624-.093-.957-.215-1.346-.459-1.622-1.016-.125-.253-.128-.267-.128-.627 0-.352.006-.38.114-.602.16-.328.512-.677.841-.832.282-.134.586-.186.879-.151.11.013.204.021.208.017s-.17-1.386-.39-3.071c.194 2.03.029.786-.131-.459l-.335-3.177a8.997 8.997 0 0 0-.519-2.23l.02.062a10.02 10.02 0 0 0-3.638-4.762L1.2 3.126C.886 2.909.08 2.433.027 2.433.012 2.433 0 7.631 0 13.983v11.55h5.59l.059.275c.081.377.289 1.018.47 1.449.569 1.358 1.534 2.587 2.798 3.565.486.376.803.695.954.964.056.099.112.18.124.18a.79.79 0 0 0 .131-.181l.002-.004c.169-.28.446-.558.835-.839.567-.41.83-.631 1.211-1.017 1.041-1.053 1.811-2.477 2.169-4.011l.077-.331 5.58-.017V2.432l-.17.087c-.498.266-.922.537-1.323.837l.026-.019a11.323 11.323 0 0 0-1.653 1.612l-.015.018a10.858 10.858 0 0 0-2.152 4.715l-.011.068c-.078.418-.941 7.022-.921 7.042.007.007.104 0 .214-.017.829-.125 1.702.521 1.847 1.368.075.437-.095.912-.455 1.271-.326.325-.562.421-1.545.632l-.375.08-.248-.471c-1.104-2.098-1.844-4.178-2.167-6.088-.157-.931-.196-1.443-.195-2.534.002-1.134.027-1.639.193-3.833.173-2.286.191-2.635.195-3.667.004-1.052-.01-1.163-.231-1.828a4.928 4.928 0 0 0-.909-1.594l-.099-.119-.211.268zM2.117 6.283a8.234 8.234 0 0 1 1.507 3.28l.01.054c.059.289.733 5.619.733 5.8 0 .047-.082.121-.275.249-.638.422-1.218 1.141-1.393 1.726l-.043.141H1.7V5.79l.071.063c.039.035.194.229.346.43zm16.216 5.401v5.884l-.938-.018-.093-.24c-.255-.655-.727-1.225-1.363-1.646-.208-.137-.272-.198-.272-.256 0-.132.666-5.513.719-5.808.201-1.123.723-2.271 1.492-3.282.202-.265.418-.518.443-.518.007 0 .012 2.648.012 5.884zm-7.874 6.149c.281.689.67 1.492 1.093 2.256.137.245.248.454.248.462 0 .009-.023.016-.051.016-.122 0-.607.22-.883.402a4.855 4.855 0 0 0-.578.462l.003-.003-.274.263-.25-.233c-.444-.413-.916-.711-1.342-.844-.105-.033-.192-.072-.192-.085s.12-.243.266-.509c.61-1.113 1.042-2.067 1.387-3.066l.125-.362.173.495c.095.272.219.608.275.745zm-7.792 1.375c.002.101.231.597.38.821.523.786 1.252 1.263 2.303 1.505l.354.085c.048.014.046.052-.023.392-.116.57-.18 1.047-.204 1.507l-.021.415H1.7v-4.766h.483c.364 0 .484.01.484.041zm15.666 2.342v2.383h-3.756l-.022-.405a11.798 11.798 0 0 0-.233-1.672l.014.077a1.763 1.763 0 0 1-.051-.286l-.001-.008c.006-.006.21-.06.455-.12.555-.137.883-.273 1.267-.525.615-.404 1.147-1.079 1.329-1.686l.042-.141h.956v2.383zm-10.557.518c.736.225 1.391 1.043 1.391 1.739v.126H7.1v-.275c0-.327.067-.803.185-1.315l.086-.374.106.02c.059.011.193.047.299.079zm4.954.207c.122.515.169.823.192 1.25l.021.408h-2.076v-.115c0-.2.069-.46.191-.718.148-.313.552-.73.865-.894.162-.085.585-.226.714-.237.01-.002.052.136.093.306zm-3.563 4.977v1.685l-.17-.193a8.1 8.1 0 0 1-1.167-1.755l-.021-.048c-.173-.364-.474-1.198-.475-1.316-.001-.054.065-.058.916-.058h.917v1.685zm3.533-1.656c0 .083-.188.659-.32.985-.309.754-.846 1.614-1.357 2.169l-.154.167-.002-3.35h.916c.512 0 .917.013.917.029z"/></symbol><symbol id="icon-user-fill" viewBox="0 0 32 32"><path d="M14.934 1.41a7.987 7.987 0 0 0-4.635 2.325l-.001.001c-1.076 1.083-1.794 2.43-2.149 4.037-.167.755-.167 2.366 0 3.121.364 1.639 1.075 2.959 2.203 4.088 1.132 1.13 2.452 1.843 4.084 2.201.711.157 2.317.172 3.005.029 1.671-.349 3.069-1.09 4.209-2.23s1.88-2.536 2.228-4.207c.143-.687.128-2.294-.029-3.005-.441-2.009-1.485-3.655-3.08-4.854-.583-.438-1.799-1.053-2.447-1.236-1.081-.307-2.4-.413-3.387-.269zm.293 17.288-.667.081c-1.021.118-2.321.515-3.33 1.021a10.963 10.963 0 0 0-4.127 3.654l-.025.039c-.463.72-.87 1.549-1.18 2.423l-.026.085c-.317.968-.537 2.216-.539 3.027v.307h21.349l-.035-.606a10.28 10.28 0 0 0-1.1-4.119l.027.059c-1.527-3.096-4.431-5.312-7.891-5.86l-.06-.008c-.517-.081-2.078-.147-2.397-.101z"/></symbol><symbol id="icon-x-close" viewBox="0 0 32 32"><path d="M7.626 6.245c-.291.085-.749.427-1.029.774-.432.533-.509 1.054-.24 1.616.088.184 1.011 1.143 3.665 3.806l3.547 3.56-3.551 3.56c-3.907 3.918-3.806 3.799-3.805 4.44 0 .449.157.77.586 1.199.429.43.75.586 1.199.586.634 0 .526.093 4.44-3.808l3.56-3.547 3.56 3.547c3.914 3.901 3.806 3.808 4.44 3.808.449 0 .77-.157 1.199-.586.43-.429.586-.75.586-1.199 0-.634.093-.526-3.808-4.44l-3.547-3.56 3.547-3.56c3.901-3.914 3.808-3.806 3.808-4.44 0-.449-.157-.77-.586-1.199-.429-.43-.75-.586-1.199-.586-.634 0-.526-.093-4.44 3.808l-3.56 3.547-3.56-3.547c-2.721-2.712-3.619-3.576-3.814-3.67-.29-.138-.728-.186-1-.109z"/></symbol></defs></svg>